<?xml version="1.0" encoding="utf-8"?>
<!-- Generator: Adobe Illustrator 16.0.4, SVG Export Plug-In . SVG Version: 6.00 Build 0)  -->
<!DOCTYPE svg PUBLIC "-//W3C//DTD SVG 1.1//EN" "http://www.w3.org/Graphics/SVG/1.1/DTD/svg11.dtd">
<svg version="1.1" id="Layer_1" xmlns="http://www.w3.org/2000/svg" xmlns:xlink="http://www.w3.org/1999/xlink" x="0px" y="0px"
	 width="200px" height="200px" viewBox="0 0 200 200" enable-background="new 0 0 200 200" xml:space="preserve">
<g>
	<path fill="#9EC8EA" d="M200,100c0,55.229-44.775,100-100.001,100C44.772,200,0,155.229,0,100C0,44.772,44.772,0,99.999,0
		C155.225,0,200,44.772,200,100"/>
	<g>
		<path fill="#90A8BE" d="M150,153.125H50c-6.902,0-12.5-5.596-12.5-12.5v-62.5c0-6.902,5.597-12.5,12.5-12.5h18.75H50
			c-6.902,0-12.5,5.598-12.5,12.5v56.251c0,6.902,5.597,12.5,12.5,12.5h100c6.904,0,12.5-5.598,12.5-12.5v6.249
			C162.5,147.529,156.904,153.125,150,153.125"/>
		<path fill="#FFFFFF" d="M118.75,50v62.501h-37.5V50H118.75 M118.75,37.5h-37.5c-6.906,0-12.5,5.598-12.5,12.5v62.501
			c0,6.902,5.594,12.499,12.5,12.499h37.5c6.904,0,12.5-5.597,12.5-12.499V50C131.25,43.098,125.654,37.5,118.75,37.5"/>
		<path fill="#FFFFFF" d="M37.5,87.5v46.876c0,6.902,5.597,12.5,12.5,12.5h100c6.904,0,12.5-5.598,12.5-12.5V87.5H37.5"/>
		<path fill="#404956" d="M118.75,79.797c-1.843-1.062-3.979-1.672-6.249-1.672H87.5c-2.28,0-4.413,0.61-6.25,1.672V65.625h37.5
			V79.797 M68.75,87.5H37.5v-9.375c0-6.902,5.597-12.5,12.5-12.5h18.75V87.5 M162.5,87.5h-31.25V65.625H150
			c6.904,0,12.5,5.598,12.5,12.5V87.5"/>
		<path fill="#B88052" d="M75.393,87.5H68.75V65.625h12.5v14.172C78.384,81.453,76.235,84.216,75.393,87.5 M131.25,87.5h-6.646
			c-0.848-3.284-2.99-6.047-5.854-7.703V65.625h12.5V87.5"/>
		<path fill="#3A3F4A" d="M118.75,87.5h-37.5v-7.703c1.837-1.062,3.97-1.672,6.25-1.672h25.001c2.271,0,4.406,0.61,6.249,1.672V87.5
			"/>
		<path fill="#FFFFFF" d="M162.5,71.875c0-6.903-5.596-12.5-12.5-12.5H50c-6.906,0-12.5,5.597-12.5,12.5V87.5h125V71.875"/>
	</g>
	<g>
		<path fill="#9B6D48" d="M82.058,87.5h-5.856c0.842-3.284,2.991-6.047,5.856-7.703V87.5 M125.416,87.5h-5.859v-7.703
			C122.425,81.453,124.568,84.216,125.416,87.5"/>
		<path fill="#D0D2D3" d="M101.231,97.75L88.786,85.308l1.463,0.5l-0.479,0.482L101.231,97.75 M90.62,109.61L80.325,99.315
			l-4.37-12.766l-2.187-6.383l13.29,4.549l-5.726,5.728l13.592,13.592l-11.45-11.451l-3.15,3.148l11.748,11.747
			C91.513,108.231,91.032,108.942,90.62,109.61 M118.872,135.932c-1.171,0-2.492-0.561-3.559-1.626l-15.499-15.5
			c0.67-0.413,1.378-0.897,2.131-1.453l8.018,8.021l3.146-3.152l-7.718-7.719l7.718,7.719l6.296-6.297l-7.73-7.732l7.73,7.732
			l1.36-1.354l7.141,7.147c1.776,1.77,2.158,4.267,0.855,5.573l-7.867,7.866C120.369,135.681,119.654,135.932,118.872,135.932"/>
		<path fill="#F399C0" d="M108.891,124.298c-1.772-1.772-2.158-4.27-0.852-5.571l7.867-7.87c1.306-1.304,3.803-0.926,5.575,0.851
			l6.424,6.427c1.776,1.775,2.161,4.271,0.855,5.572l-7.867,7.874c-1.307,1.301-3.804,0.921-5.58-0.857L108.891,124.298"/>
		<polyline fill="#E2995E" points="89.771,86.29 92.917,83.142 122.553,112.777 119.404,115.924 89.771,86.29 		"/>
		<polyline fill="#E2995E" points="81.332,90.444 87.627,84.148 119.404,115.924 113.108,122.221 81.332,90.444 		"/>
		<polyline fill="#E2995E" points="80.325,95.733 83.475,92.585 113.108,122.221 109.963,125.373 80.325,95.733 		"/>
		<polyline fill="#515D73" points="73.768,76.587 75.955,82.968 80.154,78.771 73.768,76.587 		"/>
		<polyline fill="#F5CE86" points="92.917,83.142 80.154,78.771 75.955,82.968 80.325,95.733 81.898,94.159 85.615,94.727 
			84.48,87.296 91.913,88.431 91.345,84.716 92.917,83.142 		"/>
		<path fill="#D0D2D3" d="M80.061,134.021c-4.222,0-8.002-1.057-9.597-2.649c4.544-3.015,5.655-7.245,6.809-10.626
			c0.598-1.758,1.401-3.381,2.867-4.846c2.046-2.049,5.041-3.204,7.937-3.204c0.341,0,0.683,0.015,1.02,0.048
			c0.319-0.938,0.815-1.977,1.523-3.134l9.194,9.195c-1.163,0.714-2.21,1.211-3.152,1.532c0.216,2.239-0.278,4.62-1.402,6.631
			c-0.475,0.848-1.053,1.636-1.733,2.317C90.127,132.685,84.812,134.021,80.061,134.021"/>
		<path fill="#A6A8AB" d="M99.814,118.806l-9.194-9.195c0.412-0.668,0.893-1.379,1.452-2.131l9.873,9.873
			C101.192,117.908,100.484,118.393,99.814,118.806"/>
		<path fill="#D0D2D3" d="M114.631,104.853l-10.059-10.057c8.435-7.213,18.023-13.632,21.912-13.632c0.576,0,1.03,0.142,1.33,0.447
			C130.158,83.948,122.914,95.162,114.631,104.853"/>
		<path fill="#B88052" d="M111.674,108.191L101.231,97.75c1.082-0.99,2.199-1.979,3.341-2.954l10.059,10.057
			C113.654,105.994,112.665,107.111,111.674,108.191"/>
		<path fill="#B88052" d="M105.391,114.502l-10.466-10.466c0.832-0.923,1.759-1.895,2.791-2.928
			c1.105-1.105,2.286-2.231,3.517-3.359l10.442,10.442c-1.126,1.232-2.252,2.417-3.357,3.519
			C107.289,112.74,106.312,113.669,105.391,114.502"/>
		<path fill="#B88052" d="M101.945,117.353l-9.873-9.873c0.79-1.058,1.733-2.206,2.852-3.443l10.466,10.466
			C104.151,115.619,103.005,116.562,101.945,117.353"/>
		<path fill="#F5CE86" d="M97.715,98.078c-10.352,10.351-10.312,15.057-7.383,17.988c2.928,2.929,7.635,2.966,17.985-7.386
			c10.35-10.35,22.428-27.172,19.498-30.1C124.888,75.652,108.064,87.728,97.715,98.078"/>
		<path fill="#98CB99" d="M70.464,128.345c3.387,3.382,16.637,4.338,23.062-2.087c0.68-0.684,1.259-1.468,1.733-2.318
			c-10.051-0.3-15.368-3.645-17.987-6.221C76.12,121.098,75.008,125.33,70.464,128.345"/>
		<path fill="#515D73" d="M94.331,112.066c-3.695-3.698-10.494-2.892-14.19,0.806c-1.466,1.46-2.268,3.089-2.867,4.847
			c2.62,2.576,7.77,10.513,17.987,6.221C97.365,120.16,97.348,115.082,94.331,112.066"/>
		<path fill="#98CB99" d="M77.273,117.719c0,0,6.089-1.156,8.994,3.119c2.902,4.277,8.994,3.102,8.994,3.102l-7.881,4.354
			l-7.89-5.74L77.273,117.719"/>
		
			<line fill="none" stroke="#B88052" stroke-width="1.5625" stroke-miterlimit="10" x1="109.963" y1="125.373" x2="122.553" y2="112.777"/>
	</g>
</g>
</svg>
