<?xml version="1.0" encoding="utf-8"?>
<!-- Generator: Adobe Illustrator 16.0.4, SVG Export Plug-In . SVG Version: 6.00 Build 0)  -->
<!DOCTYPE svg PUBLIC "-//W3C//DTD SVG 1.1//EN" "http://www.w3.org/Graphics/SVG/1.1/DTD/svg11.dtd">
<svg version="1.1" id="Layer_1" xmlns="http://www.w3.org/2000/svg" xmlns:xlink="http://www.w3.org/1999/xlink" x="0px" y="0px"
	 width="200px" height="200px" viewBox="0 0 200 200" enable-background="new 0 0 200 200" xml:space="preserve">
<path fill="#9EC8EA" d="M200,100c0,55.228-44.772,100-100,100S0,155.228,0,100C0,44.773,44.772,0,100,0S200,44.773,200,100"/>
<g>
	<path fill="#6D6E70" d="M75.824,116.354c0.256,2.356,0.5,4.708,0.732,7.046c0.235,2.396,0.461,4.771,0.656,7.109
		c0.873-1.438,1.56-2.89,2.088-4.335c0.625-1.713,1.046-3.405,1.297-5.025C78.928,119.705,77.341,118.086,75.824,116.354z"/>
	<path fill="#6D6E70" d="M132.205,106.961c-3.5,5.968-7.775,11.233-12.638,15.146c0.306,1.604,0.785,3.27,1.472,4.946
		c1.767,4.316,4.977,8.69,10.58,12.3c-0.556-5.314-0.286-14.893,0.229-25.535C131.958,111.571,132.077,109.278,132.205,106.961z"/>
	<path fill="#FFFFFF" d="M53.357,151.812c-0.009-1.91-0.006-4.013,0.009-6.254c-5.686,1.711-11.673,3.361-14.969,5.041
		c1.403,1.538,2.963,2.997,4.608,4.404c3.155,2.714,6.705,5.198,10.556,7.419C53.458,160.316,53.375,156.638,53.357,151.812z"/>
	<path fill="#B3B3B3" d="M59.87,171.957c-1.922-0.906-3.812-1.851-5.625-2.872"/>
	<path fill="#90A8BE" d="M156.998,155.003c-14.407,12.401-37.323,19.996-57.001,19.996l-0.076-0.003l-0.312-0.006
		c-8.804-0.046-18.268-1.629-27.328-4.462c-6.598-2.062-12.973-4.789-18.72-8.106c-3.851-2.221-7.401-4.705-10.556-7.419
		c-1.791,0.618-3.396,1.231-4.608,1.85c4.26,4.652,9.708,8.77,15.848,12.232c1.813,1.021,3.702,1.966,5.625,2.872
		c12.405,5.848,26.785,9.221,39.743,9.284l0.311,0.006L100,181.25c21.921,0,47.889-9.405,61.604-24.397
		C160.392,156.234,158.786,155.621,156.998,155.003z"/>
	<path fill="#FFFFFF" d="M145.041,145.066c-2.905-0.891-5.67-1.801-7.84-2.744c-2.087-0.907-3.934-1.907-5.582-2.969
		c-5.604-3.609-8.813-7.983-10.58-12.3c-0.687-1.677-1.166-3.342-1.472-4.946c4.862-3.913,9.138-9.179,12.638-15.146
		c1.087-19.857,2.597-40.973,1.13-44.201c-2.606-5.728-13.022-11.46-20.313-22.397C102.085,52.604,81.51,60.412,72.916,61.457
		c-4.334,0.525-0.059,27.743,2.908,54.896c1.517,1.732,3.104,3.352,4.773,4.795c-0.25,1.62-0.671,3.312-1.297,5.025
		c-0.528,1.445-1.215,2.897-2.088,4.335c0.156,1.881,0.293,3.73,0.418,5.55c1.196,17.828,0.528,32.328-5.35,34.47
		c9.06,2.833,18.524,4.416,27.328,4.462l0.312,0.006l0.076,0.003c19.678,0,42.594-7.595,57.001-19.996
		c1.642-1.407,3.201-2.866,4.603-4.404C157.99,148.761,151.172,146.953,145.041,145.066z"/>
	<path fill="#929497" d="M144.791,67.969c-2.862-16.925-15.119-44.282-41.666-45.053c-17.969-0.521-28.754,8.521-36.459,19.793
		c-3.692,5.402-6.387,15.745-8.355,28.184c-0.369,2.34-0.721,4.733-1.041,7.202c-0.262,2.038-0.506,4.126-0.735,6.228
		c-0.177,1.606-0.345,3.22-0.503,4.853c-1.929,19.884-2.57,41.442-2.664,56.382c-0.015,2.241-0.019,4.344-0.009,6.254
		c0.018,4.826,0.101,8.505,0.205,10.61c5.747,3.317,12.122,6.044,18.72,8.106c5.877-2.142,6.545-16.642,5.35-34.47
		c-0.125-1.819-0.263-3.669-0.418-5.55c-0.195-2.339-0.421-4.714-0.656-7.109c-0.232-2.338-0.476-4.689-0.732-7.046
		c-2.967-27.154-7.242-54.372-2.908-54.896c8.594-1.045,29.169-8.854,40.105-21.094c7.291,10.937,17.707,16.669,20.313,22.397
		c1.467,3.229-0.043,24.344-1.13,44.201c-0.128,2.317-0.247,4.61-0.356,6.857c-0.516,10.643-0.785,20.221-0.229,25.535
		c1.648,1.062,3.495,2.062,5.582,2.969c2.17,0.943,4.935,1.854,7.84,2.744C148.511,134.605,147.421,83.511,144.791,67.969z"/>
</g>
</svg>
