<?xml version="1.0" encoding="utf-8"?>
<!-- Generator: Adobe Illustrator 16.0.4, SVG Export Plug-In . SVG Version: 6.00 Build 0)  -->
<!DOCTYPE svg PUBLIC "-//W3C//DTD SVG 1.1//EN" "http://www.w3.org/Graphics/SVG/1.1/DTD/svg11.dtd">
<svg version="1.1" id="Layer_1" xmlns="http://www.w3.org/2000/svg" xmlns:xlink="http://www.w3.org/1999/xlink" x="0px" y="0px"
	 width="200px" height="200px" viewBox="0 0 200 200" enable-background="new 0 0 200 200" xml:space="preserve">
<path fill="#597D92" d="M50,143.751c-0.021,0-0.043,0-0.067,0C49.957,143.751,49.979,143.751,50,143.751"/>
<g>
	<path fill="#9EC8EA" d="M200,100c0,55.225-44.772,100-100.001,100C44.772,200,0,155.225,0,100C0,44.772,44.772,0,99.999,0
		C155.228,0,200,44.772,200,100"/>
	<path fill="#90A8BE" d="M149.999,150H50c-6.906,0-12.5-5.596-12.5-12.499V75v56.252c0,6.828,5.475,12.377,12.276,12.492
		c0.007,0,0.016,0,0.022,0c0.027,0.007,0.052,0.007,0.079,0.007c0.006,0,0.016,0,0.025,0c0.008,0,0.021,0,0.03,0
		c0.024,0,0.045,0,0.067,0h99.999c0.019,0,0.04,0,0.062,0c0.014,0,0.023,0,0.036,0c0.005,0,0.016,0,0.023,0
		c0.024,0,0.049,0,0.076-0.007c0.009,0,0.016,0,0.022,0c6.802-0.115,12.28-5.664,12.28-12.492v6.249
		C162.5,144.404,156.902,150,149.999,150"/>
	<path fill="#D0D2D3" d="M162.5,131.252c0,6.902-5.598,12.499-12.501,12.499H50c-6.906,0-12.5-5.597-12.5-12.499V68.75
		c0-6.904,5.594-12.5,12.5-12.5h99.999c6.903,0,12.501,5.597,12.501,12.5V131.252"/>
	<path fill="#597D92" d="M149.999,143.751c0.019,0,0.04,0,0.062,0C150.039,143.751,150.018,143.751,149.999,143.751"/>
	<path fill="#B9B8AD" d="M149.999,143.751c0.027,0,0.055,0,0.086,0c-0.007,0-0.016,0-0.023,0
		C150.039,143.751,150.018,143.751,149.999,143.751"/>
	<path fill="#A6A8AB" d="M39.599,137.373c-0.091-0.146-0.174-0.306-0.259-0.462c0.416-0.595,0.879-1.204,1.441-1.824L82.327,99.96
		l3.128,2.682l-44.674,33.436C40.332,136.521,39.948,136.951,39.599,137.373 M160.398,137.373c-0.35-0.422-0.734-0.852-1.179-1.295
		l-44.651-33.416l3.149-2.662l41.502,35.087c0.559,0.62,1.021,1.229,1.437,1.824C160.573,137.067,160.488,137.227,160.398,137.373
		 M50,143.751c-0.021,0-0.043,0-0.067,0c-0.006,0-0.012,0-0.022,0C49.942,143.751,49.969,143.751,50,143.751"/>
	<path fill="#D0D2D3" d="M111.011,100c-6.059-5.937-15.968-5.937-22.025,0l-48.205,36.078c-0.562,0.554-1.026,1.09-1.441,1.621
		c2.191,3.612,6.125,6.052,10.66,6.052h99.999c4.535,0,8.467-2.439,10.657-6.052c-0.415-0.531-0.878-1.067-1.437-1.621L111.011,100"
		/>
	<path fill="#6795AF" d="M49.936,56.25c0.021,0,0.043,0,0.064,0C49.979,56.25,49.957,56.25,49.936,56.25 M150.062,56.25
		c-0.023,0-0.045,0-0.063,0C150.021,56.25,150.039,56.25,150.062,56.25"/>
	<path fill="#A6A8AB" d="M117.718,100l-6.707-5.672c-3.031-3.352-7.02-5.03-11.012-5.03c-3.994,0-7.983,1.678-11.013,5.03
		l-6.659,5.632L39.34,63.084c2.182-4.062,6.088-6.811,10.596-6.834c0.021,0,0.043,0,0.064,0h99.999c0.019,0,0.04,0,0.062,0
		c4.507,0.024,8.413,2.773,10.595,6.834c-0.415,0.6-0.878,1.208-1.437,1.828L117.718,100"/>
	<path fill="#9A9790" d="M114.568,102.662L111.011,100c-3.031-2.969-7.02-4.453-11.012-4.453c-3.994,0-7.983,1.484-11.013,4.453
		l-3.531,2.643l-3.128-2.682l6.659-5.632c3.03-3.352,7.019-5.03,11.013-5.03c3.992,0,7.98,1.678,11.012,5.03l6.707,5.672
		L114.568,102.662"/>
	<path fill="#A6A8AB" d="M99.999,110.7c-3.994,0-7.983-1.676-11.013-5.029l-3.531-3.028L88.986,100
		c3.03-2.969,7.019-4.453,11.013-4.453c3.992,0,7.98,1.484,11.012,4.453l3.558,2.662l-3.558,3.009
		C107.979,109.024,103.991,110.7,99.999,110.7"/>
	<path fill="#FFFFFF" d="M88.986,100c6.057,5.937,15.966,5.937,22.025,0l48.209-36.081c0.559-0.549,1.024-1.088,1.437-1.619
		c-2.19-3.612-6.122-6.05-10.657-6.05H50c-4.535,0-8.469,2.438-10.66,6.05c0.416,0.531,0.879,1.07,1.441,1.619L88.986,100"/>
</g>
</svg>
