<?xml version="1.0" encoding="utf-8"?>
<!-- Generator: Adobe Illustrator 16.0.4, SVG Export Plug-In . SVG Version: 6.00 Build 0)  -->
<!DOCTYPE svg PUBLIC "-//W3C//DTD SVG 1.1//EN" "http://www.w3.org/Graphics/SVG/1.1/DTD/svg11.dtd">
<svg version="1.1" id="Layer_1" xmlns="http://www.w3.org/2000/svg" xmlns:xlink="http://www.w3.org/1999/xlink" x="0px" y="0px"
	 width="200px" height="200px" viewBox="0 0 200 200" enable-background="new 0 0 200 200" xml:space="preserve">
<g>
	<path fill="#9EC8EA" d="M200,100c0,55.228-44.772,100-100,100C44.77,200,0,155.228,0,100S44.77,0,100,0
		C155.228,0,200,44.772,200,100"/>
	<path fill="#90A8BE" d="M140.625,168.75h-81.25c-5.179,0-9.375-4.196-9.375-9.375V53.125v100c0,5.179,4.196,9.375,9.375,9.375
		h81.25c5.179,0,9.375-4.196,9.375-9.375v6.25C150,164.554,145.804,168.75,140.625,168.75"/>
	<path fill="#E6E7E8" d="M112.5,65.625V37.5H59.375C54.196,37.5,50,41.696,50,46.875v106.25c0,5.179,4.196,9.375,9.375,9.375h81.25
		c5.179,0,9.375-4.196,9.375-9.375V75h-28.125C116.696,75,112.5,70.804,112.5,65.625"/>
	<path fill="#B88052" d="M150,75h-28.125c-2.298,0-4.401-0.824-6.033-2.197L150,75"/>
	<path fill="#BBBDBF" d="M150,103.125l-18.75-16.568v-2.182h-2.47l-13.104-11.581l0.165,0.009c1.632,1.373,3.735,2.197,6.033,2.197
		H150V103.125"/>
	<path fill="#FFFFFF" d="M112.5,37.5v28.125c0,5.179,4.196,9.375,9.375,9.375H150L112.5,37.5"/>
	<rect x="68.75" y="86.197" fill="#929497" width="30.078" height="6.25"/>
	<rect x="68.75" y="117.446" fill="#929497" width="62.5" height="6.251"/>
	<rect x="68.75" y="101.822" fill="#929497" width="62.5" height="6.249"/>
	<polyline fill="#BBBDBF" points="131.25,86.557 128.78,84.375 131.25,84.375 131.25,86.557 	"/>
	<rect x="68.75" y="133.071" fill="#929497" width="62.5" height="6.251"/>
	<rect x="68.75" y="148.697" fill="#929497" width="62.5" height="6.25"/>
	<rect x="68.747" y="47.093" fill="#929497" width="30.078" height="30.078"/>
	<path fill="#FFFFFF" d="M93.814,57.12c0,2.756-2.246,5.013-5.014,5.013c-2.769,0-5.014-2.257-5.014-5.013
		c0-2.757,2.246-5.014,5.014-5.014C91.568,52.106,93.814,54.363,93.814,57.12"/>
	<path fill="#FFFFFF" d="M96.319,74.666v-6.042l-1.974-1.955c-1.215-1.229-3.198-1.229-4.413,0l-2.115,2.08l-4.834-4.785
		c-2.451-2.432-6.418-2.432-8.862,0l-2.866,2.856v7.846H96.319"/>
</g>
</svg>
